<svg version="1.1" id="Layer_1" xmlns="http://www.w3.org/2000/svg" xmlns:xlink="http://www.w3.org/1999/xlink" x="0px" y="0px"
	 width="100%" viewBox="0 0 201 168" enable-background="new 0 0 201 168" xml:space="preserve">
<path fill="#FFFFFF" opacity="1.000000" stroke="none" 
	d="
M138.000000,169.000000 
	C92.030846,169.000000 46.561687,169.000000 1.046266,169.000000 
	C1.046266,113.068840 1.046266,57.137627 1.046266,1.103208 
	C67.885635,1.103208 134.771484,1.103208 201.828674,1.103208 
	C201.828674,56.999569 201.828674,112.999748 201.828674,169.000000 
	C180.804596,169.000000 159.652298,169.000000 138.000000,169.000000 
M111.592529,146.065491 
	C112.590240,146.011780 113.618256,146.095963 114.581268,145.884354 
	C145.631958,139.060913 165.923813,113.798386 166.832031,83.138359 
	C167.457275,62.030933 158.757660,44.505444 142.441330,30.961658 
	C127.255241,18.356071 109.445984,14.784392 90.493217,17.498161 
	C74.498344,19.788401 61.255020,27.803366 51.010704,40.485226 
	C41.744019,51.956848 36.490921,65.097969 36.089676,79.777336 
	C35.350758,106.810333 50.851665,131.618881 76.602272,142.227158 
	C87.538246,146.732361 98.932137,148.427063 111.592529,146.065491 
z"/>
<path fill="#EBF2FE" opacity="1.000000" stroke="none" 
	d="
M111.155258,146.147888 
	C98.932137,148.427063 87.538246,146.732361 76.602272,142.227158 
	C50.851665,131.618881 35.350758,106.810333 36.089676,79.777336 
	C36.490921,65.097969 41.744019,51.956848 51.010704,40.485226 
	C61.255020,27.803366 74.498344,19.788401 90.493217,17.498161 
	C109.445984,14.784392 127.255241,18.356071 142.441330,30.961658 
	C158.757660,44.505444 167.457275,62.030933 166.832031,83.138359 
	C165.923813,113.798386 145.631958,139.060913 114.581268,145.884354 
	C113.618256,146.095963 112.590240,146.011780 111.155258,146.147888 
M123.571106,64.054832 
	C126.134468,60.444839 127.685989,63.260899 129.819244,64.743774 
	C131.003983,65.567314 133.025894,65.186523 134.670486,65.348534 
	C134.785324,64.000771 135.531769,62.077316 134.912872,61.398304 
	C130.775940,56.859543 126.436836,52.489456 121.917587,48.331753 
	C121.247505,47.715279 118.787956,48.029007 118.055634,48.784325 
	C117.342499,49.519855 117.297897,51.617153 117.829910,52.681679 
	C118.659973,54.342560 120.224655,55.636299 121.624481,57.254906 
	C119.830551,58.911407 118.439140,60.196224 116.200569,62.263298 
	C113.904846,59.509998 112.159431,57.017818 109.973152,55.004337 
	C109.174820,54.269108 107.115097,54.211262 106.033791,54.712936 
	C105.281937,55.061760 105.190376,56.884789 104.852859,58.063263 
	C104.390129,59.678959 104.480583,61.799129 103.458031,62.854057 
	C94.772026,71.815125 85.900681,80.597023 77.053978,89.401566 
	C74.168671,92.273117 72.004852,95.626907 73.759125,99.617821 
	C75.297585,103.117790 74.170654,105.162201 71.653168,107.236336 
	C70.503059,108.183907 69.098000,109.172035 68.587952,110.452278 
	C68.030022,111.852707 68.372467,113.611855 68.322487,115.214661 
	C69.811523,115.078415 71.593956,115.408615 72.722267,114.698883 
	C74.508446,113.575378 75.727142,111.583687 77.438408,110.294456 
	C78.473015,109.514992 80.265335,108.664429 81.235207,109.051987 
	C87.192268,111.432411 91.415024,108.999313 95.448952,104.867592 
	C103.586426,96.532867 111.849182,88.318275 120.186447,80.183449 
	C121.277679,79.118713 123.072998,78.697227 124.612816,78.193794 
	C126.009300,77.737228 127.502151,77.575447 128.952515,77.283699 
	C128.542572,75.680763 128.496048,73.837547 127.633919,72.533577 
	C126.464302,70.764526 124.490211,69.539818 123.228951,67.813011 
	C122.694725,67.081596 123.095284,65.667427 123.571106,64.054832 
z"/>
<path fill="#4488F6" opacity="1.000000" stroke="none" 
	d="
M123.321045,64.309204 
	C123.095284,65.667427 122.694725,67.081596 123.228951,67.813011 
	C124.490211,69.539818 126.464302,70.764526 127.633919,72.533577 
	C128.496048,73.837547 128.542572,75.680763 128.952515,77.283699 
	C127.502151,77.575447 126.009300,77.737228 124.612816,78.193794 
	C123.072998,78.697227 121.277679,79.118713 120.186447,80.183449 
	C111.849182,88.318275 103.586426,96.532867 95.448952,104.867592 
	C91.415024,108.999313 87.192268,111.432411 81.235207,109.051987 
	C80.265335,108.664429 78.473015,109.514992 77.438408,110.294456 
	C75.727142,111.583687 74.508446,113.575378 72.722267,114.698883 
	C71.593956,115.408615 69.811523,115.078415 68.322495,115.214661 
	C68.372467,113.611855 68.030022,111.852707 68.587952,110.452278 
	C69.098000,109.172035 70.503059,108.183907 71.653168,107.236336 
	C74.170654,105.162201 75.297585,103.117790 73.759125,99.617821 
	C72.004852,95.626907 74.168671,92.273117 77.053978,89.401566 
	C85.900681,80.597023 94.772026,71.815125 103.458031,62.854057 
	C104.480583,61.799129 104.390129,59.678959 104.852859,58.063263 
	C105.190376,56.884789 105.281937,55.061760 106.033791,54.712936 
	C107.115097,54.211262 109.174820,54.269108 109.973152,55.004337 
	C112.159431,57.017818 113.904846,59.509998 116.200569,62.263298 
	C118.439140,60.196224 119.830551,58.911407 121.624481,57.254906 
	C120.224655,55.636299 118.659973,54.342560 117.829910,52.681679 
	C117.297897,51.617153 117.342499,49.519855 118.055634,48.784325 
	C118.787956,48.029007 121.247505,47.715279 121.917587,48.331753 
	C126.436836,52.489456 130.775940,56.859543 134.912872,61.398304 
	C135.531769,62.077316 134.785324,64.000771 134.670486,65.348534 
	C133.025894,65.186523 131.003983,65.567314 129.819244,64.743774 
	C127.685989,63.260899 126.134468,60.444839 123.321045,64.309204 
M101.960388,73.464806 
	C100.038216,74.979210 98.116051,76.493607 96.783707,77.543312 
	C99.922531,81.232277 102.141243,83.839874 103.939384,85.953178 
	C108.844070,81.096169 113.389671,76.594742 117.918289,72.110146 
	C115.698715,69.912376 113.265610,67.503174 110.088120,64.356888 
	C107.510643,67.265244 104.985016,70.115089 101.960388,73.464806 
M88.998970,86.430153 
	C86.531212,88.901978 84.086250,91.397118 81.589394,93.839188 
	C79.021881,96.350388 79.338486,98.727448 81.688858,101.190201 
	C84.138283,103.756760 86.691803,104.361923 89.508392,101.852402 
	C93.095467,98.656403 96.649139,95.422928 100.502220,91.948608 
	C98.005325,89.319855 96.193008,87.633636 94.648933,85.729858 
	C92.734581,83.369560 91.143082,83.783104 88.998970,86.430153 
z"/>
<path fill="#E5EEFE" opacity="1.000000" stroke="none" 
	d="
M102.209892,73.214874 
	C104.985016,70.115089 107.510643,67.265244 110.088120,64.356888 
	C113.265610,67.503174 115.698715,69.912376 117.918289,72.110146 
	C113.389671,76.594742 108.844070,81.096169 103.939384,85.953178 
	C102.141243,83.839874 99.922531,81.232277 96.783707,77.543312 
	C98.116051,76.493607 100.038216,74.979210 102.209892,73.214874 
z"/>
<path fill="#E7F0FE" opacity="1.000000" stroke="none" 
	d="
M89.255463,86.179268 
	C91.143082,83.783104 92.734581,83.369560 94.648933,85.729858 
	C96.193008,87.633636 98.005325,89.319855 100.502220,91.948608 
	C96.649139,95.422928 93.095467,98.656403 89.508392,101.852402 
	C86.691803,104.361923 84.138283,103.756760 81.688858,101.190201 
	C79.338486,98.727448 79.021881,96.350388 81.589394,93.839188 
	C84.086250,91.397118 86.531212,88.901978 89.255463,86.179268 
z"/>
</svg>